/* XPM */
static xpm_row_t const font_small_xpm[] = {
"260 42 36 1",
" 	c None",
".	c #B1B1B1",
"+	c #ACACAC",
"@	c #B2B2B2",
"#	c #AEAEAE",
"$	c #B3B3B3",
"%	c #B9B9B9",
"&	c #BABABA",
"*	c #B0B0B0",
"=	c #B4B4B4",
"-	c #AFAFAF",
";	c #B6B6B6",
">	c #BCBCBC",
",	c #BEBEBE",
"'	c #ADADAD",
")	c #AAAAAA",
"!	c #ABABAB",
"~	c #B5B5B5",
"{	c #BFBFBF",
"]	c #B7B7B7",
"^	c #A8A8A8",
"/	c #A7A7A7",
"(	c #A9A9A9",
"_	c #A5A5A5",
":	c #A3A3A3",
"<	c #A4A4A4",
"[	c #A6A6A6",
"}	c #A2A2A2",
"|	c #BDBDBD",
"1	c #B8B8B8",
"2	c #C2C2C2",
"3	c #C1C1C1",
"4	c #BBBBBB",
"5	c #9E9E9E",
"6	c #9D9D9D",
"7	c #9F9F9F",
"                                                                                                                                                                                                                                                                    ",
"                                                                                                                                                                                                                                                                    ",
"                                                                                                                                                                                                                                                                    ",
"                                                                                                                                                                                                                                                                    ",
"                                                                                                                                                                                                                                                                    ",
"         .+                @##$%                 &*#.            %=*-@;>                *---.               .**--               ,$''@            $*     *')              @#                   -                -    ;+!             .~              $#@      {-$]   ",
"        .+^+              @+/)'--               ='^'-!!          @')!''-@              '()++-=             -)/^/!*             ;'^/+*!/          @+     #)/             ~-)!                 .+_              -!   &#/             @'=>             ')!-     =('(   ",
"        -.*!-             *(:  !!^             ~!<               #)^(  !'-             )_<                 +/:                ;!<                .)     +/[             ='^)                 *)}              #(   @<              .+$|             )*'#     -.(}   ",
"       1#-~+)             *(    )}            %#)                #)(    ++*            )_                  +^                %'_                 .)_    +/[             ='^)                 *):              #(  .+#              .+$|             )$='    *$2)}   ",
"       .+  *!             *('%]#^             $((                #)(     )/            )/+%%               +^                *^    ||            .!).11='^[             ='^)                 *):              #(+$'!               .+$|             ).&*+   --3)}   ",
"       -'  *+.            *('~$+!             *^                 #)(     !<            )/!***              +^<[[             '^   @.@@           .!('-*-+^[             ='^)                 *):              #(##)!               .+$|             (*4*+  $'* )}   ",
"      &#-; *!)            *(^.#+-*            *^                 #)(     !<            )[<[[               +/<[[             +^   ':/)(          .)<:[/))/[             ='^)                 *):              #(!*'#               .+$|             (@ @+  @)  )}   ",
"      =)!--'^)            *(    @!+           .!+                #)(    $![            )_                  +^                -(#     )^          .)_    +/[             ='^)                 *):              #(  #'@              .+$|             (=  '!$'_  )}   ",
"      #!/::!'+@           *(.   =(+           4-';               #))   |@/             )[                  +^                 )-;   @)^          .)     +/[             ='^)                 ])}              #(   #)              .+@4             (=  )##(   )}   ",
"     %'#    ])!           *^=& -+^             =(*= =;#          #)+- %](<             )^(                 +^                 *+-@ =.^(          .)     +/[             ='^)               %>;(_              #^   =)'             .!+*             (=  .#/:   (}   ",
"     $)      +<            ^/))[:               !^))(            #/[(!)__              [[^))!+             (/                  $)!))^_!          .^     )_[              ![                *+/(                [    !)=             )[^^/           [@   +_/   ^_   ",
"     +'      *}                                   ![              565<                  7556})              ^                    *<[              }      }                                  +(                       /)                             }     !    ('   ",
"                                                                                                                                                                                                                                                                    ",
"                                                                                                                                                                                                                                                                    ",
"                                                                                                                                                                                                                                                                    ",
"                                                                                                                                                                                                                                                                    ",
"                                                                                                                                                                                                                                                                    ",
"                                                                                                                                                                                                                                                                    ",
"                                                                                                                                                                                                                                                                    ",
"                                                                                                                                                                                                                                                                    ",
"                                                                                                                                                                                                                                                                    ",
"       ;     &=             {;$]               1@@;4                ,;=1               =@@;&                 1$;               @@@@@@@$          1$     &@.          @$      ~-       |~~    ]=     =$         $    ,~1            $    ,=~            ;@@@@$       ",
"      +'-    @(            ='^)'+.            ;-!###@              =#()#'.            $+!-##@               #+-*+             )(())^^!*          .!     ;)/          *+      -)        ##   %@!+   =#$        $-*   $)            .#.   ~!            {~##'++!      ",
"     #^^!=   #:           $(<  @.+*           .)[  )'+            @(_  ##+.           *^_  (!+             -''                  ()_}             #/     =[}          1'#    =!+        +^   =+[/   =/          )+  ;+^             )#   '[                $*^(      ",
"     #^@*-;  #:          ]!<    ;+^           .)    -/           ;!_    @+^           *^    '<            ;##                    ![}             #/     =[}           ++    .[         .(   '+(!   ._          @'*&*[              #+  .^                  #_       ",
"     #(@=+-  #:          .(      *^           .)    -[           -^      */           *^   4+:             !)#;                  ([}             #/     =[}           +(    '_         1+#  '.@+*  #)           +'.!/              4*!~#<                 '[        ",
"     #( |@'= #:          ')      =/(          .)^  ;!<           ++      =/(          *(/ =@/               ))#@                 ([}             #/     =[}           $!+  @++          +# %#*;+) =+*           -!^#=               $#')                 ~):        ",
"     #(  ;+-]#:          +)      =^+          .)/+.#^            ++      =^'          *(+.')+                ^^+'                ([}             #/     =/}            +'  .(           +! ;#  #[ ~^            =+^#~               >@^^                &-_         ",
"     #(   +#~#:          '(      */           .)[_:_             +(      */           *^'1@--                  !)!               ([}             *(     $((            !!  #_           $)=~#  *(;@[           4*^++'                =!+                -(/         ",
"     #(    +#+:          .)!    ;'<           .)^                -)!    ]'<           *^   *!#                 $)[               ([}             ]'+    *^             @!(-''           &'~@'  *!.*!           $!  @+=               )'*               ]+)          ",
"     #(    #((:           ''#  ~.^            .)                  !!-  ]@)'           *^    +)            >;  %$(                ([}              -'-  *+/              '!!'            ,'+)    !)'.          ]'!  %+-               !'*              >.)+          ",
"     *^     '^<            !+'#!/             @(                   )'$$#))~           -^    -)=            -#*#^                 [[_               '+''(^               )(^/             +(/    #[!$          #)    +!~              ^'@              $([())(/      ",
"     ~(     ;[^             *[<^              ~^                    .'(+-(.1          -^     [#             '<_                   /                 *_<                  ^(              @((    *<[           :'     /-               !               1(555555      ",
"                                                                          ))(                                                                                                                                                                                       ",
"                                                                           ;                                                                                                                                                                                        ",
"                                                                                                                                                                                                                                                                    ",
"                                                                                                                                                                                                                                                                    "};
