/* XPM */
static xpm_row_t const score_numbers_xpm[] = {
"276 20 101 2",
"  	c None",
". 	c #6D6D6D",
"+ 	c #5B5B5B",
"@ 	c #616161",
"# 	c #666666",
"$ 	c #3C3C3C",
"% 	c #7E7E7E",
"& 	c #646464",
"* 	c #3B3B3B",
"= 	c #5C5C5C",
"- 	c #4F4F4F",
"; 	c #5D5D5D",
"> 	c #5E5E5E",
", 	c #545454",
"' 	c #606060",
") 	c #515151",
"! 	c #5F5F5F",
"~ 	c #585858",
"{ 	c #686868",
"] 	c #797979",
"^ 	c #787878",
"/ 	c #767676",
"( 	c #6F6F6F",
"_ 	c #5A5A5A",
": 	c #7C7C7C",
"< 	c #727272",
"[ 	c #454545",
"} 	c #676767",
"| 	c #737373",
"1 	c #7F7F7F",
"2 	c #838383",
"3 	c #808080",
"4 	c #6C6C6C",
"5 	c #626262",
"6 	c #7D7D7D",
"7 	c #6A6A6A",
"8 	c #575757",
"9 	c #4B4B4B",
"0 	c #6B6B6B",
"a 	c #757575",
"b 	c #777777",
"c 	c #565656",
"d 	c #747474",
"e 	c #707070",
"f 	c #474747",
"g 	c #717171",
"h 	c #7A7A7A",
"i 	c #4E4E4E",
"j 	c #424242",
"k 	c #343434",
"l 	c #414141",
"m 	c #494949",
"n 	c #464646",
"o 	c #505050",
"p 	c #555555",
"q 	c #4D4D4D",
"r 	c #525252",
"s 	c #3F3F3F",
"t 	c #434343",
"u 	c #535353",
"v 	c #696969",
"w 	c #4C4C4C",
"x 	c #6E6E6E",
"y 	c #333333",
"z 	c #444444",
"A 	c #404040",
"B 	c #636363",
"C 	c #373737",
"D 	c #484848",
"E 	c #3D3D3D",
"F 	c #4A4A4A",
"G 	c #656565",
"H 	c #393939",
"I 	c #303030",
"J 	c #979797",
"K 	c #3E3E3E",
"L 	c #3A3A3A",
"M 	c #2F2F2F",
"N 	c #818181",
"O 	c #595959",
"P 	c #A1A1A1",
"Q 	c #898989",
"R 	c #2C2C2C",
"S 	c #8A8A8A",
"T 	c #7B7B7B",
"U 	c #323232",
"V 	c #919191",
"W 	c #383838",
"X 	c #313131",
"Y 	c #8B8B8B",
"Z 	c #2B2B2B",
"` 	c #868686",
" .	c #878787",
"..	c #888888",
"+.	c #828282",
"@.	c #939393",
"#.	c #353535",
"$.	c #2D2D2D",
"%.	c #2E2E2E",
"&.	c #242424",
"*.	c #202020",
"                            . + @                                                                                                                                                                                                                                                                                                                                                                                                                                                                                                                                       ",
"                          # . $                             %                 & *                                                                                                                                                                                                                                                                                                                                                                                                                                                                                       ",
"                          @ = -                         ; > , ' )           ! @ ~                             { ] ^ / ( _                                   ] . : < [                                   } | 1 2 3 4 )                                 5 < / ^ 6 7 {                                       } 5 : 8                               9 0 / / / a / . [                                 b . ^ b | . ~                             c a a d | | | | e f                             6 < / < < | ; g                               h | ^ a a } #                 ",
"                        i < j                         @ 5 k   _ _ =       e { i                             7 b l m n o 0 p                               . < = { c [                                 q e r s t > ] 7 ;                             u 5 * q n q e # 8                                   v @ w x t                               y & 9 z z z z A ,                               ( ] B C & b D E                             [ 9 9 F F F 9 + G H                           ( h ! * I ' m v r                             d 1 _ f d z ; 5 x               ",
"                        & v [                         ~ - J   ! ' <       # K                             > ^ z }     G B = (                           j 5 z 4 0 c [                                 L m B     ; { < [                             # B       e @ 4 j                                   7 $ , . j                               M B n                                           v > D                                         d d d | | ! ^ r w                           ' . t       N & O 0                           } 5 o       , } n               ",
"                        # c v                         - w P   * ' b     ' o B                             @ 7 E         8 & r                           + n   Q 7 8 [                                           g @ < t                                         _ v K                                 ~ O & w . l                               R B F                                         _ < L                                                     ' | H                             @ # p       S v o @                         ; . o '       ( 7 r T             ",
"                      , g E                           @ u 4   - ; p   @ @ =                               + B B         O } q                                 Q 7 8 [                                           h # x H                                       ] ( c ;                               # 0 s   w . l                               M & F                                         p # )                                                     < _ q                             & @ u c     4 7 L                           U 4 r         V { c w             ",
"                      > G D                           e p r 6 B t   & { A                                 @ ' :         # 7 A                                 Q 7 c [                                           5 b _ q                                     ] . 8 W                                 ! - 5   w . l                               X & r v r r &                                 O ! - ^ h 7 . v                                         _ / A                                 o _ ' ~ } . s m                           _ G + ;         G ~ U             ",
"                      0 - x                             & - r l 4   & j                                   & > R         q 4 s                                 Q 7 8 [                                           { g $ <                               j x < ( B X                                 | } w     q 4 l                               I 8 B & # e b = {                             _ ; . . O ) @ < r                                       x @ n                                   > ; # g - &                               ) G _ c N g 7 4 + R             ",
"                    c e E                                         > p _   . _ O 5 O                       5 ! ~         i 0 E                                 Q v c z                                         ; : [ K                                 7 ! + [ + < # o                             G z       = 4 j                                 T 4   b c O . 9                             ; 5 w 5     + ; @ e                                   @ ] z G                                 d ( { A F B ! {                             g m _ 4 g v l { 8 s             ",
"                    @ ' q                                       . & o   { = f h c -                       ; @ ^         = v j                                 Q v c z                                       # 6 - i                                           e o g O ^                         ) @ s       r 4 j                                           ' x , !                           O & k         r # [                                   7 { $                                 ^ 6 - &   Y D @ = p                               d $ n _ F v - (             ",
"                    ( D v                                     % { E     ' L     x p                       , B u         ; & i                                 Q v 8 z                                     q 6 ) H                                               8 < ! C                         t e ^ | | / ] < v | f                                       , g ) Z                           c G @         u # *                                 ! h w #                                 { 5 ;         r # -                                       < . s               ",
"                  8 x A                                       ' m       = K     ` 8                       > } l         # ~ )                                 Q v 8 z                                   G 6 , M                                                 ~ ^ c s                         q A E $ $ E j v F $ $                                       > a n |                           ) # n         = ' !                                 & x C                                   } O O         ) } E                                       ; { A               ",
"                  B ; n                                     G _ #       c K     a )                       v B _ |     e | $                                   : 7 8 u                                 ] ] c I                                       # '        .d < A (                                     c . j m                             o ^       v / & E                             g B ~ u     : b n p                               i h r O                                   O 5 c       ..( + w                                     G h f G               ",
"                , g z                                     @ # z         = ) F   5 l                         - = 7 { a T m =                             m g ^ ] d ! ] ^ &                             8 # d a x ( g ( 7 [                           u 4 x 0 d +.x l F                                       ; 0 l                               , e 7 . d N & L                                 o + } x d : u ~                                 G e E                                     O 8 # } 5 ( ^ # W                             o 0 ( d d ] 9 @                 ",
"                ! 7 n                                     ; s           @.[ r O D                             > $ D t H [                               7 #.$.$.%.%.$.%.$.                            i D f f f n n n z #.                          x O s D f H , p                                         _ [ #.                              ] E t D t #.A                                     ! K F f k t                                 _ ) $ c                                       a E z o 9 L s                               b K D 9 K ) >                   ",
"                # 8 B                                     &.                                                                                                                                                                                                                                                                                                                                                                                                                                                                                                            ",
"              O e s                                                                                                                                                                                                                                                                                                                                                                                                                                                                                                                                                     ",
"              ) , E                                                                                                                                                                                                                                                                                                                                                                                                                                                                                                                                                     ",
"              > *.                                                                                                                                                                                                                                                                                                                                                                                                                                                                                                                                                      "};
